<svg width="23" height="23" viewBox="0 0 23 23" fill="none" xmlns="http://www.w3.org/2000/svg">
<path d="M22.0378 10.35H20.7V7.94727C20.7 7.36997 20.23 6.9 19.6527 6.9H18.4V5.97463L18.2103 5.78488C18.2099 5.78488 18.2099 5.7845 18.2099 5.78412L15.4131 2.98732L12.4254 0H3.06667V4.21667H1.04727C0.469967 4.21667 0 4.68663 0 5.26393V22.0106H0.0023C0.000383333 22.2264 0.0674667 22.4376 0.2024 22.6144C0.390233 22.8597 0.674667 23 0.98325 23H18.1409C18.584 23 18.9742 22.7014 19.08 22.305L23 11.5571V11.4893C23 10.8292 22.5952 10.35 22.0378 10.35ZM19.6527 7.66667C19.8072 7.66667 19.9333 7.7924 19.9333 7.94727V10.35H18.4V7.66667H19.6527ZM12.65 1.30908L17.0913 5.75H12.65V1.30908ZM3.83333 0.766667H11.8833V6.51667H17.6333V6.9V10.35H4.88022C4.8254 10.35 4.77135 10.3546 4.71845 10.3634C4.34508 10.4255 4.03382 10.6977 3.94105 11.045L3.83333 11.3409V4.21667V0.766667ZM0.766667 5.26393C0.766667 5.10907 0.892783 4.98333 1.04727 4.98333H3.06667V13.4301L0.766667 19.7029V5.26393ZM18.3498 22.0735C18.3245 22.1674 18.2386 22.2333 18.1409 22.2333H0.98325C0.8901 22.2333 0.835667 22.18 0.811517 22.1482C0.787367 22.1168 0.750183 22.0501 0.764367 21.9918L3.06667 15.6776V15.6795L4.66133 11.308L4.6713 11.2765C4.6966 11.1826 4.78285 11.1167 4.88022 11.1167H17.6333H18.4H20.7H22.0378C22.1835 11.1167 22.2207 11.326 22.2303 11.4306L18.3498 22.0735Z" fill="#4D3FA6"/>
<path d="M6.13333 6.51667H9.96667C10.1783 6.51667 10.35 6.34532 10.35 6.13333C10.35 5.92135 10.1783 5.75 9.96667 5.75H6.13333C5.92173 5.75 5.75 5.92135 5.75 6.13333C5.75 6.34532 5.92173 6.51667 6.13333 6.51667Z" fill="#4D3FA6"/>
<path d="M6.13333 3.83332H9.96667C10.1783 3.83332 10.35 3.66197 10.35 3.44998C10.35 3.238 10.1783 3.06665 9.96667 3.06665H6.13333C5.92173 3.06665 5.75 3.238 5.75 3.44998C5.75 3.66197 5.92173 3.83332 6.13333 3.83332Z" fill="#4D3FA6"/>
<path d="M6.13333 9.20002H15.3333C15.5449 9.20002 15.7167 9.02867 15.7167 8.81668C15.7167 8.6047 15.5449 8.43335 15.3333 8.43335H6.13333C5.92173 8.43335 5.75 8.6047 5.75 8.81668C5.75 9.02867 5.92173 9.20002 6.13333 9.20002Z" fill="#4D3FA6"/>
</svg>
