<svg width="20" height="24" viewBox="0 0 20 24" fill="none" xmlns="http://www.w3.org/2000/svg">
<path d="M17.3869 8.17266V5.8712C17.3869 2.63383 14.7531 0 11.5156 0H8.68016C6.83327 0 5.13085 0.843195 4.00937 2.3134C3.89088 2.46867 3.92077 2.6906 4.07604 2.80905C4.23135 2.92749 4.45325 2.89759 4.57169 2.74233C5.55831 1.44903 7.05577 0.707259 8.68021 0.707259H11.5157C14.3631 0.707259 16.6796 3.02382 16.6796 5.87124V8.49904C16.4723 8.37216 16.2367 8.28762 15.9846 8.25636V7.21258H16.0166C16.2119 7.21258 16.3702 7.05425 16.3702 6.85895C16.3702 6.66366 16.2119 6.50532 16.0166 6.50532H12.3319C11.6391 6.50532 10.9948 6.10318 10.6904 5.48084L10.1493 4.37402C10.0889 4.25039 9.96016 4.17302 9.82474 4.1758C9.68725 4.17849 9.56371 4.26062 9.50812 4.38647L9.05298 5.41666C8.76079 6.07805 8.10483 6.50537 7.38177 6.50537H4.22329C4.02795 6.50537 3.86966 6.6637 3.86966 6.859C3.86966 7.02318 3.98169 7.16081 4.13338 7.20065V8.24848C3.91398 8.26574 3.70572 8.32312 3.51632 8.41408V5.87124C3.51632 5.19359 3.64541 4.53509 3.90003 3.91397C3.9741 3.73329 3.88767 3.52673 3.70695 3.45265C3.52626 3.37853 3.3197 3.46505 3.24562 3.64573C2.95593 4.35238 2.80906 5.10118 2.80906 5.87124V8.00735C1.2578 9.26779 0.37085 11.1261 0.37085 13.1294V23.3573C0.37085 23.7117 0.659176 24 1.01356 24H18.9865C19.3409 24 19.6292 23.7117 19.6292 23.3573V13.1294C19.6291 11.2321 18.8119 9.42649 17.3869 8.17266ZM16.8122 9.994C16.8122 10.5059 16.4418 10.9327 15.955 11.0211C15.9745 10.8317 15.9845 10.6396 15.9845 10.4451V8.97243C16.4568 9.07249 16.8122 9.49246 16.8122 9.994ZM9.69993 5.70244L9.84789 5.36763L10.0552 5.79146C10.4773 6.65474 11.371 7.21258 12.3319 7.21258H15.2774V10.4451C15.2774 13.1368 13.0876 15.3266 10.3959 15.3266H9.72209C7.0304 15.3266 4.84059 13.1368 4.84059 10.4451V7.21258H7.38177C8.38467 7.21258 9.29463 6.61981 9.69993 5.70244ZM16.5503 21.1808L16.0117 21.6721C15.5154 22.1249 14.7433 22.0894 14.2904 21.5931L13.5968 20.8327V20.8327C13.144 20.3363 13.1795 19.5642 13.6758 19.1114L14.2144 18.6202C14.3334 18.5115 14.5188 18.5201 14.6273 18.6391L16.5692 20.7679C16.6778 20.887 16.6693 21.0722 16.5503 21.1808ZM4.58258 16.6072C3.95477 16.4305 3.51627 15.8509 3.51627 15.1978V11.574C3.74518 11.6839 4.00145 11.7456 4.27186 11.7456V11.6837C4.61224 13.1823 5.55643 14.454 6.83421 15.2283C6.00563 15.5295 5.28602 16.0491 4.74388 16.7053C4.70135 16.6601 4.6467 16.6252 4.58258 16.6072ZM5.38287 17.0483C6.0112 16.3429 6.85925 15.8667 7.77072 15.7074C7.78477 15.7049 7.79839 15.7014 7.81169 15.6974C7.97332 15.7564 8.13844 15.808 8.30663 15.8521V16.0734C8.30663 16.4131 8.41423 16.7349 8.6074 16.9991C7.80877 17.1742 7.04384 17.4831 6.34219 17.9155C5.96334 17.7569 5.50923 17.8421 5.21704 18.1624L4.4349 19.0199C4.54868 18.3035 4.87491 17.6187 5.38287 17.0483ZM12.3477 15.6819C12.3802 15.6995 12.4159 15.7123 12.4543 15.719C12.4623 15.7204 12.4702 15.7223 12.4782 15.7237L11.8191 17.013C11.7266 16.992 11.6338 16.9725 11.5405 16.955C11.7148 16.6981 11.8118 16.3917 11.8118 16.0734V15.8519C11.9942 15.8042 12.173 15.7473 12.3477 15.6819ZM12.5763 20.1314C12.5858 20.2871 12.6143 20.4419 12.6616 20.5924L11.2952 23.2652H9.41717L11.288 19.6072C11.7681 19.7146 12.1512 19.8784 12.5763 20.1314ZM12.6787 19.3784C11.9117 18.9777 11.0563 18.7673 10.1835 18.7673C9.31018 18.7673 8.45605 18.9777 7.68919 19.3782C7.58546 19.0789 7.40836 18.8083 7.16775 18.5889L6.9419 18.3828C7.92858 17.8282 9.04133 17.5357 10.1835 17.5357C11.3257 17.5357 12.4384 17.8281 13.425 18.3828L13.1992 18.5889C12.9542 18.8123 12.7802 19.0851 12.6787 19.3784ZM14.0315 17.9128C14.0292 17.9137 14.0269 17.9146 14.0247 17.9155C13.5473 17.6213 13.0408 17.3839 12.514 17.2075L13.1735 15.9174C13.7026 16.1192 14.1816 16.4335 14.5796 16.8405L14.0315 17.9128ZM11.1045 16.0734C11.1045 16.3549 10.9666 16.6195 10.7355 16.7811C10.7091 16.7996 10.6864 16.8213 10.6668 16.8448C10.5063 16.8343 10.3452 16.8284 10.1835 16.8284C9.95002 16.8284 9.71785 16.8405 9.48728 16.8623C9.46696 16.8406 9.4439 16.8207 9.41755 16.8042C9.16482 16.6448 9.01389 16.3716 9.01389 16.0734V15.9892C9.24587 16.0186 9.48224 16.0339 9.72214 16.0339H10.3959C10.6359 16.0339 10.8724 16.0186 11.1045 15.9891V16.0734ZM3.81666 21.1808C3.75895 21.1282 3.72524 21.0562 3.72161 20.9783C3.71803 20.9003 3.74504 20.8255 3.79766 20.7679L5.73956 18.6391C5.79718 18.576 5.87625 18.544 5.95565 18.544C6.026 18.544 6.09654 18.5691 6.15251 18.6202L6.69106 19.1114C6.93153 19.3308 7.07213 19.6306 7.08703 19.9557C7.10198 20.2808 6.98943 20.5923 6.77004 20.8327L6.07641 21.5931C5.62366 22.0895 4.85148 22.1249 4.35512 21.6721L3.81666 21.1808ZM5.75762 22.6176C5.75894 22.6138 5.75979 22.61 5.76097 22.6062C6.07268 22.5074 6.36322 22.3282 6.59898 22.0697L7.29261 21.3093C7.59225 20.9808 7.76553 20.5684 7.79184 20.1307C8.51353 19.7015 9.338 19.4745 10.1835 19.4745C10.3072 19.4745 10.4304 19.4799 10.553 19.4896L8.60872 23.2927H5.57831C5.62121 23.0633 5.68105 22.8374 5.75762 22.6176ZM13.0839 21.32L13.7679 22.0697C14.0034 22.3279 14.2935 22.507 14.6048 22.6058C14.6834 22.8294 14.7448 23.0592 14.7885 23.2927H12.0754L13.0839 21.32ZM15.1498 18.1625C15.0545 18.0578 14.9416 17.9786 14.8199 17.9243L15.066 17.443C15.3016 17.8055 15.4779 18.2088 15.584 18.6385L15.1498 18.1625ZM4.13333 8.95918V10.4451C4.13333 10.6435 4.14389 10.8396 4.16416 11.0327C3.63877 10.9786 3.22761 10.5334 3.22761 9.99395C3.22761 9.4652 3.62283 9.02722 4.13333 8.95918ZM1.07806 13.1294C1.07806 11.5428 1.70144 10.058 2.80901 8.95716V9.03236C2.62677 9.30862 2.52035 9.63905 2.52035 9.99405C2.52035 10.349 2.62677 10.6795 2.80901 10.9557V15.1978C2.80901 16.1484 3.43578 16.9936 4.33961 17.2724C3.92129 17.9629 3.68186 18.7576 3.68186 19.587V19.8455L3.27519 20.2913C3.09526 20.4886 3.00289 20.7441 3.0151 21.0108C3.02633 21.2548 3.12473 21.4809 3.29235 21.6555C3.10021 22.1841 2.96989 22.7331 2.90383 23.2928H1.07806V13.1294ZM3.61566 23.2927C3.66512 22.9143 3.74712 22.5416 3.8608 22.1785L3.87853 22.1946C4.19939 22.4873 4.59305 22.6507 4.99534 22.6883C4.93913 22.8869 4.89321 23.0887 4.86016 23.2928H3.61566V23.2927ZM15.5068 23.2927C15.4737 23.0887 15.4289 22.8867 15.3727 22.6881C15.7746 22.6504 16.1679 22.4869 16.4883 22.1946L16.5059 22.1786C16.6196 22.5417 16.7017 22.9143 16.7513 23.2927H15.5068ZM18.9219 23.2927H17.4631C17.397 22.7328 17.2668 22.1837 17.0747 21.6552C17.4349 21.2791 17.4478 20.6816 17.0918 20.2912L16.4061 19.5396C16.398 18.7254 16.1804 17.9566 15.8002 17.2891C16.7396 17.0286 17.3869 16.1831 17.3869 15.1978V14.4372C17.3869 14.2419 17.2286 14.0836 17.0333 14.0836C16.8379 14.0836 16.6796 14.2419 16.6796 14.4372V15.1978C16.6796 15.8858 16.2119 16.4729 15.5422 16.6252C15.488 16.6376 15.4397 16.6621 15.3991 16.6949L15.3749 16.667C14.8434 16.0107 14.1335 15.501 13.3081 15.2134C14.5564 14.4482 15.4825 13.2068 15.832 11.7439C16.1416 11.7327 16.431 11.6412 16.6797 11.489V13.1034C16.6797 13.2987 16.838 13.4571 17.0333 13.4571C17.2287 13.4571 17.3869 13.2987 17.3869 13.1034V10.6619C17.4722 10.4559 17.5196 10.2304 17.5196 9.99395C17.5196 9.75721 17.4721 9.53145 17.3867 9.32531C17.3867 9.32342 17.3869 9.32163 17.3869 9.31975V9.16335C18.3691 10.243 18.922 11.6551 18.922 13.1293V23.2927H18.9219Z" fill="#4D3FA6"/>
<path d="M10.0872 13.4711C10.6963 13.4711 11.1919 12.9755 11.1919 12.3664C11.1919 12.1711 11.0336 12.0128 10.8383 12.0128C10.643 12.0128 10.4847 12.1711 10.4847 12.3664C10.4847 12.5855 10.3064 12.7639 10.0872 12.7639C9.86805 12.7639 9.68968 12.5855 9.68968 12.3664C9.68968 12.1711 9.5314 12.0128 9.33605 12.0128C9.14071 12.0128 8.98242 12.1711 8.98242 12.3664C8.98247 12.9755 9.47807 13.4711 10.0872 13.4711Z" fill="#4D3FA6"/>
<path d="M7.25605 10.0745L7.79319 10.0754C7.77103 10.1251 7.75834 10.1801 7.75825 10.2382C7.75787 10.4577 7.93308 10.636 8.14965 10.6364C8.36616 10.6368 8.54203 10.4591 8.54246 10.2396C8.5426 10.1529 8.51506 10.0729 8.46876 10.0075C8.55618 9.94327 8.61328 9.84011 8.61347 9.72327C8.61384 9.52792 8.45575 9.36936 8.2605 9.36898L7.25737 9.36719C7.25713 9.36719 7.25694 9.36719 7.25671 9.36719C7.06169 9.36719 6.90345 9.52509 6.90308 9.72016C6.90265 9.9155 7.06075 10.0741 7.25605 10.0745Z" fill="#4D3FA6"/>
<path d="M11.6491 10.0075C11.6028 10.0729 11.5753 10.1529 11.5754 10.2396C11.5758 10.4592 11.7517 10.6368 11.9682 10.6364C12.1848 10.6361 12.36 10.4577 12.3596 10.2382C12.3595 10.1801 12.3468 10.1251 12.3247 10.0755L12.8618 10.0745C13.0571 10.0742 13.2152 9.91556 13.2148 9.72022C13.2144 9.52516 13.0562 9.36725 12.8612 9.36725C12.861 9.36725 12.8607 9.36725 12.8605 9.36725L11.8574 9.36904C11.6621 9.36937 11.504 9.52798 11.5044 9.72333C11.5046 9.84007 11.5616 9.94324 11.6491 10.0075Z" fill="#4D3FA6"/>
</svg>
